<?xml version="1.0" encoding="utf-8"?>
<!-- Generator: Avocode 2.4.5 - http://avocode.com -->
<svg height="51" width="62" xmlns:xlink="http://www.w3.org/1999/xlink" xmlns="http://www.w3.org/2000/svg" viewBox="0 0 62 51">
    <path fill="#4a90e2" fill-rule="evenodd" d="M 60.57 13.95 L 47.32 0.77 C 46.66 0.12 45.71 -0.14 44.8 0.08 C 44.33 0.19 43.9 0.44 43.57 0.77 C 43.26 1.07 43.04 1.44 42.91 1.86 C 42.31 3.79 41.27 5.48 39.73 7 C 37.68 9.04 35.01 10.59 32.19 12.22 C 29.19 13.95 26.09 15.74 23.55 18.27 C 21.39 20.42 19.92 22.81 19.06 25.59 C 18.77 26.52 19.02 27.54 19.71 28.23 L 32.96 41.41 C 33.62 42.07 34.57 42.33 35.48 42.11 C 35.95 41.99 36.38 41.75 36.71 41.41 C 37.02 41.11 37.24 40.74 37.37 40.33 C 37.97 38.39 39.01 36.71 40.55 35.18 C 42.6 33.14 45.27 31.6 48.1 29.97 C 51.09 28.23 54.2 26.44 56.73 23.92 C 58.89 21.77 60.36 19.37 61.22 16.6 C 61.51 15.66 61.26 14.64 60.57 13.95 L 60.57 13.95 Z M 34.84 39.55 C 30.45 35.18 25.98 30.73 21.59 26.36 C 25.36 14.24 41.68 14.77 45.44 2.64 C 49.83 7 54.3 11.45 58.69 15.82 C 54.93 27.95 38.6 27.42 34.84 39.55 L 34.84 39.55 Z M 34.84 39.55" />
    <path fill="#4a90e2" fill-rule="evenodd" d="M 44.86 19.64 C 44.43 19.28 43.99 19.04 43.56 18.92 C 43.12 18.79 42.69 18.75 42.25 18.78 C 41.81 18.81 41.37 18.91 40.92 19.08 C 40.48 19.25 40.03 19.44 39.58 19.66 C 38.87 18.84 38.16 18.04 37.44 17.29 C 37.76 17 38.08 16.86 38.38 16.85 C 38.68 16.83 38.96 16.87 39.24 16.93 C 39.52 17 39.77 17.06 40.01 17.11 C 40.25 17.16 40.46 17.1 40.64 16.95 C 40.83 16.79 40.94 16.57 40.95 16.32 C 40.96 16.06 40.86 15.8 40.65 15.56 C 40.37 15.24 40.03 15.04 39.63 14.97 C 39.23 14.9 38.82 14.91 38.39 15 C 37.98 15.1 37.58 15.25 37.2 15.47 C 36.82 15.7 36.52 15.92 36.29 16.14 C 36.21 16.06 36.12 15.98 36.03 15.9 C 35.94 15.81 35.82 15.77 35.68 15.77 C 35.53 15.77 35.41 15.83 35.31 15.95 C 35.22 16.06 35.18 16.19 35.19 16.32 C 35.21 16.46 35.26 16.57 35.36 16.65 C 35.45 16.73 35.53 16.8 35.62 16.87 C 35.28 17.28 35 17.73 34.78 18.2 C 34.56 18.68 34.43 19.15 34.38 19.61 C 34.32 20.07 34.37 20.49 34.52 20.88 C 34.66 21.28 34.92 21.61 35.3 21.93 C 35.93 22.44 36.66 22.66 37.51 22.61 C 38.36 22.56 39.28 22.31 40.26 21.79 C 41.04 22.68 41.83 23.58 42.61 24.41 C 42.28 24.68 41.99 24.84 41.73 24.89 C 41.48 24.95 41.25 24.94 41.04 24.88 C 40.84 24.82 40.65 24.72 40.47 24.61 C 40.29 24.48 40.12 24.38 39.95 24.3 C 39.77 24.21 39.6 24.17 39.42 24.16 C 39.24 24.16 39.05 24.25 38.83 24.43 C 38.62 24.62 38.51 24.84 38.51 25.08 C 38.51 25.33 38.62 25.58 38.84 25.83 C 39.07 26.08 39.36 26.29 39.72 26.46 C 40.07 26.63 40.47 26.73 40.91 26.76 C 41.35 26.79 41.81 26.73 42.3 26.55 C 42.79 26.37 43.28 26.05 43.76 25.57 C 43.99 25.79 44.22 26 44.46 26.21 C 44.55 26.29 44.67 26.34 44.82 26.33 C 44.96 26.32 45.08 26.26 45.18 26.14 C 45.27 26.02 45.31 25.89 45.3 25.75 C 45.29 25.62 45.23 25.51 45.13 25.43 C 44.9 25.25 44.67 25.05 44.44 24.85 C 44.83 24.36 45.15 23.85 45.39 23.35 C 45.62 22.84 45.76 22.35 45.81 21.9 C 45.85 21.44 45.8 21.03 45.65 20.66 C 45.5 20.28 45.24 19.95 44.86 19.64 L 44.86 19.64 Z M 37.45 20.54 C 37.08 20.55 36.75 20.43 36.46 20.15 C 36.34 20.04 36.26 19.89 36.2 19.73 C 36.15 19.56 36.13 19.38 36.15 19.18 C 36.17 18.98 36.23 18.77 36.33 18.56 C 36.43 18.36 36.58 18.15 36.76 17.95 C 37.44 18.61 38.11 19.34 38.78 20.09 C 38.27 20.37 37.83 20.52 37.45 20.54 L 37.45 20.54 Z M 43.7 23.17 C 43.58 23.39 43.45 23.59 43.29 23.76 C 42.54 23.01 41.8 22.19 41.06 21.35 C 41.25 21.27 41.45 21.18 41.66 21.09 C 41.88 21 42.09 20.94 42.31 20.9 C 42.53 20.87 42.74 20.88 42.96 20.93 C 43.18 20.98 43.38 21.1 43.57 21.28 C 43.76 21.47 43.87 21.66 43.92 21.87 C 43.97 22.08 43.98 22.3 43.94 22.51 C 43.9 22.73 43.82 22.95 43.7 23.17 L 43.7 23.17 Z M 43.7 23.17" />
    <path fill="#4a90e2" fill-rule="evenodd" d="M 43.29 10.17 C 42.6 10.86 41.85 11.48 41.07 12.07 C 41.01 12.1 40.96 12.14 40.91 12.19 C 40.65 12.45 40.65 12.87 40.91 13.13 C 41.17 13.38 41.58 13.39 41.84 13.15 L 41.84 13.15 C 42.67 12.52 43.48 11.85 44.23 11.1 C 44.95 10.39 45.6 9.63 46.16 8.87 L 47.07 7.63 L 47.07 7.63 C 47.29 7.36 47.28 6.97 47.03 6.72 C 46.77 6.46 46.35 6.46 46.09 6.72 C 46.04 6.77 46 6.83 45.97 6.89 L 45.09 8.09 C 44.57 8.8 43.96 9.5 43.29 10.17 L 43.29 10.17 Z M 38.44 29.24 L 38.44 29.24 C 37.61 29.87 36.8 30.54 36.05 31.29 C 35.33 32 34.68 32.76 34.12 33.53 L 33.21 34.76 L 33.21 34.76 C 33.05 35.02 33.07 35.36 33.3 35.59 C 33.56 35.84 33.98 35.84 34.24 35.59 C 34.28 35.54 34.31 35.5 34.34 35.45 L 35.19 34.3 C 35.71 33.59 36.32 32.88 36.99 32.22 C 37.73 31.48 38.42 30.91 39.26 30.27 L 39.26 30.27 C 39.28 30.25 39.3 30.24 39.33 30.22 C 39.58 29.96 39.58 29.54 39.33 29.28 C 39.09 29.04 38.7 29.03 38.44 29.24 L 38.44 29.24 Z M 38.44 29.24" />
    <path fill="#4a90e2" fill-rule="evenodd" d="M 43.22 36.86 L 43.22 48.33 L 7.14 48.33 L 7.14 23.31 C 7.14 23.24 7.13 23.16 7.12 23.09 L 25.18 7.45 L 28.17 10.07 C 28.72 10.55 29.55 10.49 30.03 9.94 C 30.5 9.39 30.44 8.57 29.89 8.09 L 26.04 4.73 C 25.55 4.3 24.81 4.3 24.32 4.73 L 0.45 25.4 C -0.1 25.87 -0.15 26.7 0.32 27.25 C 0.58 27.54 0.95 27.7 1.31 27.7 C 1.62 27.7 1.93 27.59 2.17 27.38 L 4.51 25.35 L 4.51 49.64 C 4.51 50.36 5.1 50.95 5.83 50.95 L 44.53 50.95 C 45.26 50.95 45.85 50.36 45.85 49.64 L 45.85 36.86 C 45.85 36.13 45.26 35.55 44.53 35.55 C 43.81 35.55 43.22 36.13 43.22 36.86 Z M 43.22 36.86" />
</svg>