<?xml version="1.0" encoding="utf-8"?>
<!-- Generator: Avocode 2.4.5 - http://avocode.com -->
<svg height="16" width="16" xmlns:xlink="http://www.w3.org/1999/xlink" xmlns="http://www.w3.org/2000/svg" viewBox="0 0 16 16">
    <path fill="#9b9b9b" fill-rule="evenodd" d="M 2.13 9 C 2.33 9.79 2.76 10.59 3.32 11.3 L 3.19 11.44 L 1.81 12.81 L 3.19 14.19 L 4.56 12.81 L 4.69 12.68 C 5.41 13.24 6.21 13.67 7 13.87 L 7 14 L 7 16 L 9 16 L 9 14 L 9 13.87 C 9.79 13.67 10.59 13.25 11.31 12.68 L 12.12 13.5 L 12.81 14.19 L 14.19 12.81 L 13.5 12.12 L 12.68 11.31 C 13.25 10.59 13.67 9.79 13.87 9 L 15 9 L 16 9 L 16 7 L 15 7 L 13.87 7 C 13.67 6.21 13.24 5.41 12.68 4.69 L 12.81 4.56 L 14.19 3.19 L 12.81 1.81 L 11.44 3.19 L 11.3 3.32 C 10.59 2.76 9.79 2.33 9 2.13 L 9 2 L 9 0 L 7 0 L 7 2 L 7 2.13 C 6.21 2.33 5.41 2.76 4.69 3.32 L 3.19 1.81 L 1.81 3.19 L 3.32 4.69 C 2.76 5.41 2.33 6.21 2.13 7 L 0 7 L 0 9 L 2.13 9 L 2.13 9 Z M 6 8.75 L 6 7.25 L 7.25 6 L 8.75 6 L 10 7.25 L 10 8.75 L 8.75 10 L 7.25 10 L 6 8.75 L 6 8.75 Z M 6 8.75" />
</svg>