<?xml version="1.0" encoding="utf-8"?>
<!-- Generator: Avocode 2.4.5 - http://avocode.com -->
<svg height="30" width="32" xmlns:xlink="http://www.w3.org/1999/xlink" xmlns="http://www.w3.org/2000/svg" viewBox="0 0 32 30">
    <path fill="#ffffff" fill-rule="evenodd" d="M 31.8 12.98 C 31.69 12.75 31.45 12.6 31.19 12.6 L 29.2 12.6 C 27.94 5.75 21.93 0.55 14.73 0.55 C 6.61 0.55 0 7.16 0 15.28 C 0 23.4 6.61 30 14.73 30 C 19.97 30 24.85 27.18 27.48 22.64 C 27.85 22 27.63 21.18 26.99 20.81 C 26.35 20.44 25.53 20.66 25.16 21.3 C 23.01 25.02 19.01 27.33 14.73 27.33 C 8.08 27.33 2.68 21.92 2.68 15.28 C 2.68 8.63 8.08 3.23 14.73 3.23 C 20.45 3.23 25.24 7.24 26.47 12.6 L 24.5 12.6 C 24.24 12.6 24 12.75 23.89 12.98 C 23.78 13.22 23.82 13.5 23.98 13.7 L 27.33 17.71 C 27.46 17.87 27.64 17.95 27.84 17.95 C 28.04 17.95 28.23 17.87 28.36 17.71 L 31.7 13.7 C 31.87 13.5 31.91 13.22 31.8 12.98" />
    <path fill="#ffffff" fill-rule="evenodd" d="M 15.29 16.96 C 15.85 16.96 16.3 16.51 16.3 15.95 C 16.3 15.4 15.85 14.95 15.29 14.95 C 14.74 14.95 14.29 15.4 14.29 15.95 C 14.29 16.51 14.74 16.96 15.29 16.96 M 15.29 4.57 C 16.03 4.57 16.63 5.17 16.63 5.91 L 16.63 14.04 C 17.24 14.46 17.64 15.16 17.64 15.95 C 17.64 17.25 16.58 18.3 15.29 18.3 C 14.94 18.3 14.61 18.21 14.3 18.07 L 9.65 20.76 C 9.44 20.88 9.21 20.94 8.98 20.94 C 8.52 20.94 8.07 20.7 7.82 20.27 C 7.45 19.63 7.67 18.81 8.31 18.44 L 12.97 15.75 C 13.03 15.04 13.4 14.42 13.95 14.04 L 13.95 5.91 C 13.95 5.17 14.55 4.57 15.29 4.57" />
</svg>