<?xml version="1.0" encoding="utf-8"?>
<!-- Generator: Avocode 2.4.5 - http://avocode.com -->
<svg height="86" width="87" xmlns:xlink="http://www.w3.org/1999/xlink" xmlns="http://www.w3.org/2000/svg" viewBox="0 0 87 86">
    <defs>
        <linearGradient y2="100%" y1="0%" x2="0%" x1="0%" id="gradient-1">
            <stop stop-color="#4a90e2" offset="0%" />
            <stop stop-color="#288e1a" offset="100%" />
        </linearGradient>
    </defs>
    <path fill="#eaeaea" fill-rule="evenodd" d="M 43 86 C 66.75 86 86 66.75 86 43 C 86 19.25 66.75 0 43 0 C 19.25 0 0 19.25 0 43 C 0 66.75 19.25 86 43 86 Z M 43 73.26 C 59.71 73.26 73.26 59.71 73.26 43 C 73.26 26.29 59.71 12.74 43 12.74 C 26.29 12.74 12.74 26.29 12.74 43 C 12.74 59.71 26.29 73.26 43 73.26 Z M 43 73.26" />
    <path fill="url(#gradient-1)" fill-rule="evenodd" d="M 43.45 73.26 C 60.38 73.26 74.1 59.71 74.1 43 C 74.1 26.29 60.38 12.74 43.45 12.74 C 39.89 12.74 37 9.89 37 6.37 C 37 2.85 39.89 0 43.45 0 C 67.5 0 87 19.25 87 43 C 87 66.75 67.5 86 43.45 86 C 39.89 86 37 83.15 37 79.63 C 37 76.11 39.89 73.26 43.45 73.26 Z M 43.45 73.26" />
</svg>