<?xml version="1.0" encoding="utf-8"?>
<!-- Generator: Avocode 2.4.5 - http://avocode.com -->
<svg height="33" width="40" xmlns:xlink="http://www.w3.org/1999/xlink" xmlns="http://www.w3.org/2000/svg" viewBox="0 0 40 33">
    <path fill="#ffffff" fill-rule="evenodd" d="M 39 1.2 C 38.65 0.86 38.09 0.84 37.72 1.16 L 19.02 17.42 C 18.63 17.76 18.59 18.35 18.93 18.73 C 19.28 19.11 19.87 19.15 20.26 18.81 L 28.84 11.35 L 16.61 25.42 L 12.45 19.5 L 16.04 21.62 C 16.49 21.88 17.06 21.74 17.33 21.3 C 17.6 20.86 17.46 20.29 17.01 20.03 L 9.69 15.7 C 9.31 15.48 8.82 15.54 8.52 15.86 C 8.22 16.18 8.18 16.66 8.43 17.02 L 15.75 27.47 C 15.92 27.7 16.19 27.85 16.48 27.86 C 16.49 27.86 16.51 27.87 16.53 27.87 C 16.8 27.87 17.06 27.75 17.24 27.54 L 39.05 2.46 C 39.38 2.09 39.35 1.54 39 1.2 L 39 1.2 Z M 39 1.2" />
    <path fill="#ffffff" fill-rule="evenodd" d="M 31.9 12.49 C 31.38 12.49 30.96 12.91 30.96 13.42 L 30.96 31.11 L 5.11 31.11 L 5.11 13.42 C 5.11 13.37 5.11 13.31 5.1 13.26 L 18.04 2.2 L 25.15 8.29 C 25.55 8.62 26.14 8.58 26.48 8.19 C 26.82 7.81 26.78 7.22 26.39 6.89 L 18.65 0.27 C 18.3 -0.03 17.77 -0.03 17.42 0.27 L 0.32 14.89 C -0.07 15.23 -0.11 15.81 0.23 16.2 C 0.42 16.41 0.68 16.52 0.94 16.52 C 1.16 16.52 1.38 16.45 1.56 16.29 L 3.23 14.86 L 3.23 32.04 C 3.23 32.55 3.65 32.96 4.17 32.96 L 31.9 32.96 C 32.42 32.96 32.84 32.55 32.84 32.04 L 32.84 13.42 C 32.84 12.91 32.42 12.49 31.9 12.49 L 31.9 12.49 Z M 31.9 12.49" />
</svg>