<?xml version="1.0" encoding="utf-8"?>
<!-- Generator: Avocode 2.4.5 - http://avocode.com -->
<svg height="72" width="53" xmlns:xlink="http://www.w3.org/1999/xlink" xmlns="http://www.w3.org/2000/svg" viewBox="0 0 53 72">
    <path fill="#4a90e2" fill-rule="evenodd" d="M 40.84 29.26 C 40.84 29.26 50.67 15.27 50.67 9.84 C 50.67 4.4 46.27 0 40.84 0 C 35.4 0 31 4.4 31 9.84 C 31 15.27 40.84 29.26 40.84 29.26 Z M 41.13 15.25 C 43.4 15.25 45.25 13.4 45.25 11.13 C 45.25 8.85 43.4 7 41.13 7 C 38.85 7 37 8.85 37 11.13 C 37 13.4 38.85 15.25 41.13 15.25 Z M 41.13 15.25" />
    <path fill="#4a90e2" fill-rule="evenodd" d="M 11.84 50.26 C 11.84 50.26 21.67 36.27 21.67 30.84 C 21.67 25.4 17.27 21 11.84 21 C 6.4 21 2 25.4 2 30.84 C 2 36.27 11.84 50.26 11.84 50.26 Z M 12.13 36.25 C 14.4 36.25 16.25 34.4 16.25 32.13 C 16.25 29.85 14.4 28 12.13 28 C 9.85 28 8 29.85 8 32.13 C 8 34.4 9.85 36.25 12.13 36.25 Z M 12.13 36.25" />
    <path stroke-linejoin="miter" stroke-linecap="butt" stroke-width="2" stroke="#4a90e2" fill="none" fill-rule="evenodd" d="M 51.53 42.19 C 49.34 39.43 50.21 36.16 49.53 33.19 C 49.16 31.6 46.67 30.91 47.44 29.73 C 51.28 23.83 43.46 21.6 43.61 16.92 C 43.62 16.61 42.57 15.87 41.96 16.5 C 39.38 19.11 35.49 18.89 32.67 20.92 C 31.44 21.79 30.31 21.73 28.97 21.1 C 29.58 19.94 30.15 18.86 30.71 17.78 C 28.53 19.44 25.64 19.35 24.74 17.72 C 22.46 13.55 18.98 15.54 15.56 15.1 C 18.43 16.37 15.69 18.31 16.54 19.63 C 17.28 20.77 18 21.82 16.36 22.39 C 15.04 22.86 15.36 25.68 12.46 24.2 C 8.96 22.41 7.46 23.99 7.65 27.97 C 7.72 29.43 7.55 31 6.11 31.81 C 5.45 32.18 5.02 32.28 5.31 33.16 C 6.2 35.94 5.6 37.07 2.88 37.58 C 2.07 37.74 0.73 38.03 1.14 38.6 C 3.31 41.59 -1.04 45.29 2.34 48.03 C 2.72 48.34 2.64 48.85 2.55 49.44 C 1.73 54.85 3.61 57.31 9.06 58.25 C 10.23 58.45 11.38 58.83 13.08 59.27 C 10.95 61.47 10.4 63.91 9.94 66.43 C 9.49 68.87 10.54 69.9 12.73 69.1 C 16.03 67.9 19.09 68.96 22.26 69.46 C 23.45 69.65 24.67 71.17 24.81 70.98 C 27.22 67.89 30.79 71.55 33.47 69.33 C 34.76 68.27 37.03 68.18 38.82 69.08 C 40.96 70.14 41.18 69.34 40.43 67.54 C 39.7 65.8 39.58 64.9 41.83 63.79 C 46.26 61.59 46.11 61.13 42.03 57.97 C 41.09 57.25 39.97 56.71 39.15 55.86 C 37.46 54.1 35.73 50.93 37.42 49.73 C 40.72 47.38 44.99 45.16 48.84 45.19 C 52.36 45.22 52 42.78 51.53 42.19 L 51.53 42.19 Z M 51.53 42.19" />
</svg>