<?xml version="1.0" encoding="utf-8"?>
<!-- Generator: Adobe Illustrator 16.0.0, SVG Export Plug-In . SVG Version: 6.00 Build 0)  -->
<!DOCTYPE svg PUBLIC "-//W3C//DTD SVG 1.1//EN" "http://www.w3.org/Graphics/SVG/1.1/DTD/svg11.dtd">
<svg version="1.1" id="Layer_1" xmlns:sketch="http://www.bohemiancoding.com/sketch/ns"
	 xmlns="http://www.w3.org/2000/svg" xmlns:xlink="http://www.w3.org/1999/xlink" x="0px" y="0px" width="53px" height="72px"
	 viewBox="0 0 53 72" enable-background="new 0 0 53 72" xml:space="preserve">
<title>map icon</title>
<desc>Created with Sketch.</desc>
<path fill="#4990E2" d="M52.313,41.566c-0.997-1.252-1.299-2.496-1.435-5.02c-0.01-0.172-0.01-0.172-0.018-0.346
	c-0.084-1.606-0.152-2.327-0.359-3.233c-0.184-0.792-0.615-1.353-1.396-2.064c-0.062-0.057-0.367-0.33-0.443-0.4
	c-0.137-0.125-0.23-0.22-0.299-0.299c2.122-3.329,1.453-5.438-1.539-9.029c-0.178-0.213-0.335-0.407-0.487-0.597
	c2.25-3.928,4.335-8.241,4.335-10.742C50.672,4.404,46.269,0,40.836,0C35.404,0,31,4.404,31,9.836c0,1.353,0.61,3.237,1.527,5.304
	l-2.418,1.84c-1.731,1.317-3.932,1.28-4.494,0.257c-1.605-2.936-3.343-3.437-7.243-3.152c-1.157,0.084-1.69,0.103-2.315,0.057
	c-0.128-0.009-0.253-0.022-0.375-0.038c0,0-1.032-0.205-1.683,0C13.349,14.31,14,15,14,15l1.151,1.012
	c0.799,0.354,0.858,0.508,0.672,1.145c-0.031,0.106-0.063,0.206-0.13,0.401c-0.427,1.249-0.502,1.828,0.011,2.621
	c0.474,0.732,0.621,1.002,0.646,1.186c0.017-0.066-0.092,0.002-0.32,0.081c-0.545,0.192-0.861,0.484-1.218,1.017
	C13.874,22.163,12.875,22,11.836,22C6.404,22,2,26.404,2,31.836c0,1.207,0.487,2.837,1.242,4.641
	c-0.171,0.042-0.345,0.083-0.55,0.123c-0.688,0.135-1.129,0.246-1.536,0.42c-0.94,0.4-1.524,1.207-0.824,2.172
	c0.56,0.771,0.571,1.572,0.166,3.24c-0.022,0.09-0.039,0.16-0.08,0.322c-0.748,3.018-0.639,4.491,1.288,6.051
	c-0.074-0.006-0.088,0.125-0.143,0.488c-0.899,5.923,1.32,8.906,7.322,9.943c0.443,0.082,1.509,0.353,2.422,0.592
	c-1.216,1.662-1.814,3.498-2.352,6.418c-0.585,3.174,1.169,4.865,4.116,3.79c1.757-0.638,3.412-0.626,6.064-0.14
	c0.284,0.053,0.498,0.094,1.036,0.198c0.939,0.183,1.383,0.265,1.93,0.351c0.29,0.061,0.627,0.251,1.035,0.566
	c0.173,0.133,0.704,0.576,0.697,0.57c0.146,0.118,0.255,0.197,0.377,0.265c0.13,0.071,0.262,0.122,0.428,0.145
	c0.351,0.046,0.722-0.077,0.969-0.4c0.767-0.987,1.461-1.08,3.58-0.724c0.16,0.027,0.231,0.039,0.322,0.055
	c2.085,0.34,3.332,0.225,4.601-0.824c0.949-0.782,2.786-0.862,4.264-0.125c1.45,0.723,2.462,0.876,3.124,0.029
	c0.537-0.689,0.391-1.553-0.152-2.846c-0.647-1.55-0.602-1.719,0.93-2.475c5.059-2.512,5.066-3.854,0.365-7.5
	c-0.32-0.246-0.578-0.42-1.156-0.796c-0.893-0.581-1.257-0.848-1.615-1.222c-1.754-1.83-2.6-4.103-1.869-4.623
	c3.814-2.716,7.667-4.375,10.828-4.352c1.945,0.014,3.249-0.658,3.771-1.876C53.002,43.379,52.836,42.221,52.313,41.566z
	 M40.836,5.765c2.278,0,4.125,1.847,4.125,4.125c0,2.279-1.847,4.125-4.125,4.125s-4.125-1.846-4.125-4.125
	C36.711,7.611,38.558,5.765,40.836,5.765z M31.502,18.426c0.049-0.093,0.049-0.093,0.098-0.186l1.253-2.389
	c0.463,0.991,0.985,2.013,1.537,3.031c-0.941,0.364-1.597,0.714-2.304,1.221c-0.559,0.397-1.076,0.516-1.684,0.413
	C30.805,19.752,31.304,18.805,31.502,18.426z M50.764,43.525c-0.168,0.393-0.713,0.673-1.92,0.664
	c-3.668-0.027-7.876,1.785-12.002,4.723c-2.211,1.574-0.934,5.008,1.586,7.637c0.502,0.522,0.947,0.85,1.969,1.514
	c0.535,0.348,0.764,0.503,1.026,0.703c3.603,2.795,3.606,2.316-0.033,4.123c-2.552,1.26-2.915,2.578-1.888,5.041
	c0.068,0.161,0.118,0.299,0.165,0.432c-0.125-0.053-0.245-0.102-0.398-0.178c-2.141-1.069-4.823-0.952-6.43,0.371
	c-0.7,0.58-1.442,0.648-3.005,0.393c-0.086-0.014-0.154-0.025-0.312-0.052c-2.355-0.397-3.675-0.318-4.855,0.779
	c-0.119-0.099-0.234-0.191-0.306-0.247c-0.625-0.482-1.189-0.801-1.799-0.931c-0.072-0.015-0.072-0.015-0.146-0.027
	c-0.516-0.081-0.943-0.159-1.859-0.338c-0.545-0.106-0.763-0.147-1.056-0.202c-2.972-0.545-4.944-0.56-7.11,0.227
	c-1.422,0.52-1.781,0.174-1.464-1.547c0.61-3.314,1.239-4.952,2.878-6.649L15,58.719l-1.672-0.423
	c0.147,0.038-3.129-0.851-3.931-0.999c-0.085-0.016-0.085-0.016-0.171-0.031c-4.941-0.854-6.418-2.84-5.684-7.674
	c0.185-1.227,0.147-1.76-0.579-2.344c-1.123-0.908-1.18-1.684-0.603-4.013c0.041-0.165,0.059-0.238,0.082-0.331
	c0.443-1.825,0.496-3.038-0.076-4.191c0.191-0.044,0.42-0.094,0.704-0.148c0.366-0.069,0.692-0.157,1-0.254
	c2.885,6.003,7.766,12.945,7.766,12.945s9.836-13.987,9.836-19.419c0-3.647-1.989-6.823-4.938-8.521
	c1.143-0.411,1.741-1.197,1.597-2.229c-0.084-0.604-0.276-0.957-0.948-1.995c-0.042-0.064-0.019-0.239,0.203-0.887
	c0.076-0.223,0.116-0.343,0.158-0.487c0.147-0.503,0.214-1.068,0.183-1.601c0.181-0.009,0.373-0.02,0.592-0.036
	c3.2-0.233,4.218,0.06,5.343,2.119c0.834,1.518,2.711,2.033,4.636,1.643c-0.198,0.377-0.361,0.686-0.417,0.792l-0.486,0.926
	l0.947,0.445c1.737,0.816,3.23,0.779,4.709-0.273c0.609-0.438,1.203-0.741,2.125-1.082c2.626,4.575,5.461,8.607,5.461,8.607
	s2.138-3.041,4.42-6.836c2.524,3.035,2.928,4.326,1.342,6.765c-0.521,0.805-0.357,1.61,0.244,2.316
	c0.129,0.152,0.274,0.298,0.465,0.474c0.09,0.083,0.4,0.36,0.451,0.407c0.502,0.457,0.729,0.752,0.795,1.035
	c0.173,0.753,0.234,1.398,0.311,2.888c0.01,0.174,0.01,0.174,0.019,0.35c0.156,2.908,0.54,4.492,1.868,6.16
	C50.816,42.898,50.871,43.273,50.764,43.525z M12.002,27.751c2.278,0,4.125,1.847,4.125,4.124c0,2.279-1.847,4.125-4.125,4.125
	s-4.125-1.846-4.125-4.125C7.877,29.598,9.724,27.751,12.002,27.751z"/>
</svg>
