<?xml version="1.0" encoding="utf-8"?>
<!-- Generator: Avocode 2.4.5 - http://avocode.com -->
<svg height="61" width="60" xmlns:xlink="http://www.w3.org/1999/xlink" xmlns="http://www.w3.org/2000/svg" viewBox="0 0 60 61">
    <path fill="#4a90e2" fill-rule="evenodd" d="M 7.33 60.81 C 7.17 60.81 7.01 60.77 6.87 60.68 C 6.67 60.56 6.53 60.36 6.47 60.13 L 0.06 32.37 C -0.05 31.89 0.25 31.41 0.72 31.3 L 3.09 30.75 L 30.14 7.95 L 28.57 6.53 C 28.04 6.86 27.41 7.05 26.74 7.05 C 24.8 7.05 23.23 5.47 23.23 3.53 C 23.23 1.58 24.8 0 26.74 0 C 28.67 0 30.24 1.58 30.24 3.53 C 30.24 4.15 30.08 4.74 29.79 5.25 L 31.5 6.8 L 31.89 6.47 C 32.21 6.2 32.67 6.19 33 6.45 L 50.03 19.77 L 52.21 19.26 C 52.68 19.16 53.16 19.45 53.27 19.93 L 59.68 47.69 C 59.79 48.17 59.49 48.64 59.02 48.75 L 7.53 60.79 C 7.47 60.81 7.4 60.81 7.33 60.81 L 7.33 60.81 Z M 1.98 32.83 L 7.99 58.86 L 57.76 47.23 L 51.75 21.19 L 50.03 21.6 C 50.02 21.6 50.01 21.6 50 21.6 L 3.72 32.42 C 3.7 32.42 3.69 32.43 3.68 32.43 L 1.98 32.83 L 1.98 32.83 Z M 31.46 9.16 L 6.89 29.86 L 47.81 20.29 L 33.56 9.14 C 33.55 9.33 33.47 9.52 33.34 9.67 C 33.01 10.03 32.45 10.06 32.09 9.73 L 31.46 9.16 L 31.46 9.16 Z M 26.74 1.77 C 25.78 1.77 25 2.56 25 3.53 C 25 4.49 25.78 5.28 26.74 5.28 C 27.22 5.28 27.65 5.08 27.97 4.77 C 27.98 4.76 27.99 4.75 28 4.74 C 28.3 4.42 28.48 4 28.48 3.53 C 28.48 2.56 27.7 1.77 26.74 1.77 L 26.74 1.77 Z M 13.84 49.94 C 13.44 49.94 13.08 49.66 12.98 49.26 L 10.71 39.5 C 10.6 39.02 10.89 38.55 11.37 38.43 C 11.66 38.36 11.95 38.45 12.16 38.64 C 12.58 38.23 13.11 37.94 13.7 37.8 C 14.55 37.59 15.44 37.74 16.18 38.21 C 16.93 38.67 17.46 39.4 17.66 40.27 C 18.07 42.05 16.97 43.83 15.2 44.25 C 15.06 44.28 14.93 44.31 14.79 44.32 L 19.29 47.12 C 19.7 47.38 19.83 47.93 19.57 48.35 C 19.31 48.76 18.77 48.89 18.36 48.63 L 14.02 45.92 L 14.7 48.85 C 14.81 49.33 14.52 49.8 14.04 49.92 C 13.97 49.93 13.91 49.94 13.84 49.94 L 13.84 49.94 Z M 14.45 39.48 C 14.33 39.48 14.22 39.5 14.1 39.52 C 13.7 39.62 13.36 39.86 13.15 40.21 C 12.93 40.56 12.86 40.97 12.96 41.38 C 13.15 42.2 13.97 42.72 14.8 42.52 C 15.62 42.33 16.13 41.5 15.94 40.67 C 15.85 40.27 15.6 39.93 15.26 39.71 C 15.01 39.56 14.73 39.48 14.45 39.48 L 14.45 39.48 Z M 23.57 47.18 C 23.17 47.18 22.81 46.91 22.71 46.5 L 21.66 42.01 C 21.66 42 21.66 42 21.66 41.99 C 21.66 41.99 21.66 41.99 21.66 41.98 L 20.55 37.23 C 20.55 37.23 20.55 37.23 20.55 37.23 C 20.44 36.75 20.73 36.27 21.21 36.16 L 26.44 34.93 C 26.92 34.82 27.39 35.11 27.5 35.59 C 27.61 36.07 27.32 36.54 26.84 36.66 L 22.47 37.69 L 23.18 40.73 L 25.81 40.11 C 26.28 39.99 26.76 40.29 26.87 40.77 C 26.98 41.24 26.68 41.72 26.21 41.83 L 23.58 42.45 L 24.23 45.23 L 28.6 44.2 C 29.08 44.09 29.55 44.38 29.66 44.86 C 29.77 45.34 29.48 45.81 29 45.93 L 23.77 47.16 C 23.77 47.16 23.77 47.16 23.77 47.16 C 23.7 47.18 23.64 47.18 23.57 47.18 L 23.57 47.18 Z M 32.61 45.05 C 32.21 45.05 31.85 44.78 31.75 44.37 L 29.59 35.1 C 29.51 34.77 29.63 34.43 29.87 34.23 C 30.2 33.87 30.75 33.84 31.11 34.17 L 37.75 40.21 L 36.2 33.54 C 36.08 33.06 36.38 32.58 36.85 32.47 C 37.33 32.36 37.8 32.66 37.91 33.13 L 40.07 42.41 C 40.15 42.74 40.03 43.07 39.79 43.27 C 39.47 43.63 38.91 43.66 38.56 43.33 L 31.92 37.29 L 33.47 43.96 C 33.58 44.44 33.29 44.92 32.81 45.03 C 32.74 45.04 32.68 45.05 32.61 45.05 L 32.61 45.05 Z M 46.17 41.85 C 45.77 41.85 45.41 41.58 45.31 41.17 L 43.36 32.76 L 40.91 33.34 C 40.44 33.45 39.96 33.15 39.85 32.68 C 39.74 32.2 40.04 31.72 40.51 31.61 L 47.11 30.05 C 47.59 29.94 48.06 30.24 48.17 30.71 C 48.28 31.19 47.99 31.67 47.52 31.78 L 45.07 32.36 L 47.03 40.76 C 47.14 41.24 46.85 41.72 46.37 41.83 C 46.31 41.85 46.24 41.85 46.17 41.85 L 46.17 41.85 Z M 46.17 41.85" />
</svg>